<?xml version="1.0" encoding="UTF-8"?>
<svg xmlns="http://www.w3.org/2000/svg" xmlns:xlink="http://www.w3.org/1999/xlink" width="28px" height="28px" viewBox="0 0 28 28" version="1.1">
<g id="surface1">
<path style=" stroke:none;fill-rule:evenodd;fill:rgb(14.117647%,16.078431%,18.431373%);fill-opacity:1;" d="M 13.957031 0 C 6.238281 0 0 6.417969 0 14.355469 C 0 20.699219 3.996094 26.070312 9.542969 27.972656 C 10.238281 28.117188 10.492188 27.664062 10.492188 27.285156 C 10.492188 26.949219 10.46875 25.808594 10.46875 24.621094 C 6.585938 25.476562 5.777344 22.910156 5.777344 22.910156 C 5.152344 21.246094 4.230469 20.820312 4.230469 20.820312 C 2.957031 19.941406 4.320312 19.941406 4.320312 19.941406 C 5.730469 20.035156 6.472656 21.414062 6.472656 21.414062 C 7.71875 23.601562 9.730469 22.980469 10.539062 22.601562 C 10.652344 21.675781 11.023438 21.035156 11.417969 20.675781 C 8.320312 20.34375 5.0625 19.109375 5.0625 13.59375 C 5.0625 12.027344 5.617188 10.742188 6.492188 9.746094 C 6.355469 9.386719 5.871094 7.914062 6.632812 5.941406 C 6.632812 5.941406 7.8125 5.5625 10.46875 7.414062 C 11.605469 7.101562 12.78125 6.941406 13.957031 6.941406 C 15.136719 6.941406 16.339844 7.105469 17.449219 7.414062 C 20.105469 5.5625 21.285156 5.941406 21.285156 5.941406 C 22.046875 7.914062 21.5625 9.386719 21.421875 9.746094 C 22.324219 10.742188 22.855469 12.027344 22.855469 13.59375 C 22.855469 19.109375 19.597656 20.320312 16.476562 20.675781 C 16.984375 21.128906 17.425781 21.984375 17.425781 23.339844 C 17.425781 25.261719 17.402344 26.808594 17.402344 27.285156 C 17.402344 27.664062 17.65625 28.117188 18.347656 27.972656 C 23.894531 26.070312 27.894531 20.699219 27.894531 14.355469 C 27.917969 6.417969 21.652344 0 13.957031 0 Z M 13.957031 0 "/>
</g>
</svg>
